<?xml version="1.0" encoding="UTF-8" standalone="no" ?>
<!DOCTYPE svg PUBLIC "-//W3C//DTD SVG 1.1//EN" "http://www.w3.org/Graphics/SVG/1.1/DTD/svg11.dtd">
<svg xmlns="http://www.w3.org/2000/svg" xmlns:xlink="http://www.w3.org/1999/xlink" version="1.1" width="1080" height="1080" viewBox="0 0 1080 1080" xml:space="preserve">
<desc>Created with Fabric.js 4.2.0</desc>
<defs>
</defs>
<g transform="matrix(1 0 0 1 540 540)" id="36531063-b056-4d1c-8996-f93237589a69"  >
<rect style="stroke: none; stroke-width: 1; stroke-dasharray: none; stroke-linecap: butt; stroke-dashoffset: 0; stroke-linejoin: miter; stroke-miterlimit: 4; fill: rgb(255,255,255); fill-rule: nonzero; opacity: 1;" vector-effect="non-scaling-stroke"  x="-540" y="-540" rx="0" ry="0" width="1080" height="1080" />
</g>
<g transform="matrix(1 0 0 1 540 540)" id="420a0cbe-7abf-414a-a196-d6783538d97c"  >
</g>
<g transform="matrix(20.57 0 0 20.57 540 540)"  >
<g style="opacity: 0.77;" vector-effect="non-scaling-stroke"   >
		<g transform="matrix(1 0 0 1 0 -3.1)"  >
<path style="stroke: none; stroke-width: 1; stroke-dasharray: none; stroke-linecap: butt; stroke-dashoffset: 0; stroke-linejoin: miter; stroke-miterlimit: 4; fill: rgb(0,0,0); fill-rule: nonzero; opacity: 1;" vector-effect="non-scaling-stroke"  transform=" translate(-12, -9)" d="M 17.53 7.47 L 12.530000000000001 2.4699999999999998 C 12.237000000000002 2.1769999999999996 11.762 2.1769999999999996 11.47 2.4699999999999998 L 6.470000000000001 7.47 C 6.176000000000001 7.763 6.176000000000001 8.238 6.470000000000001 8.53 C 6.764 8.822 7.237000000000001 8.824 7.530000000000001 8.53 L 11.250000000000002 4.809999999999999 L 11.250000000000002 15 C 11.250000000000002 15.414 11.586000000000002 15.75 12.000000000000002 15.75 C 12.414000000000001 15.75 12.750000000000002 15.414 12.750000000000002 15 L 12.750000000000002 4.81 L 16.470000000000002 8.53 C 16.616000000000003 8.677 16.808000000000003 8.75 17.000000000000004 8.75 C 17.192000000000004 8.75 17.384000000000004 8.678 17.530000000000005 8.53 C 17.823000000000004 8.237 17.823000000000004 7.762999999999999 17.530000000000005 7.469999999999999 z" stroke-linecap="round" />
</g>
		<g transform="matrix(1 0 0 1 0 5.5)"  >
<path style="stroke: none; stroke-width: 1; stroke-dasharray: none; stroke-linecap: butt; stroke-dashoffset: 0; stroke-linejoin: miter; stroke-miterlimit: 4; fill: rgb(0,0,0); fill-rule: nonzero; opacity: 1;" vector-effect="non-scaling-stroke"  transform=" translate(-12, -17.6)" d="M 19.708 21.944 L 4.292 21.944 C 3.028 21.944 2 20.916 2 19.652 L 2 14 C 2 13.586 2.336 13.25 2.75 13.25 C 3.164 13.25 3.5 13.586 3.5 14 L 3.5 19.652 C 3.5 20.089000000000002 3.855 20.444000000000003 4.292 20.444000000000003 L 19.708 20.444000000000003 C 20.145 20.444000000000003 20.5 20.089000000000002 20.5 19.652 L 20.5 14 C 20.5 13.586 20.836 13.25 21.25 13.25 C 21.664 13.25 22 13.586 22 14 L 22 19.652 C 22 20.916 20.972 21.944000000000003 19.708 21.944000000000003 z" stroke-linecap="round" />
</g>
</g>
</g>
</svg>