<?xml version="1.0" encoding="UTF-8" standalone="no" ?>
<!DOCTYPE svg PUBLIC "-//W3C//DTD SVG 1.1//EN" "http://www.w3.org/Graphics/SVG/1.1/DTD/svg11.dtd">
<svg xmlns="http://www.w3.org/2000/svg" xmlns:xlink="http://www.w3.org/1999/xlink" version="1.1" width="1080" height="1080" viewBox="0 0 1080 1080" xml:space="preserve">
<desc>Created with Fabric.js 4.2.0</desc>
<defs>
</defs>
<g transform="matrix(1 0 0 1 540 540)" id="e6a6170b-e308-4e88-9cab-377e60ac7774"  >
<rect style="stroke: none; stroke-width: 1; stroke-dasharray: none; stroke-linecap: butt; stroke-dashoffset: 0; stroke-linejoin: miter; stroke-miterlimit: 4; fill: rgb(255,255,255); fill-rule: nonzero; opacity: 1;" vector-effect="non-scaling-stroke"  x="-540" y="-540" rx="0" ry="0" width="1080" height="1080" />
</g>
<g transform="matrix(1 0 0 1 540 540)" id="8db36357-ac5c-4341-af85-b73176f5babf"  >
</g>
<g transform="matrix(21.87 0 0 21.87 540 540)" id="b738bd8c-c10d-4267-b24a-89d3b134f46a"  >
<path style="stroke: rgb(0,0,0); stroke-width: 0; stroke-dasharray: none; stroke-linecap: butt; stroke-dashoffset: 0; stroke-linejoin: miter; stroke-miterlimit: 4; fill: rgb(0,0,0); fill-rule: nonzero; opacity: 0.57;" vector-effect="non-scaling-stroke"  transform=" translate(-11.97, -12.11)" d="M 14.046 2.242 L 9.898 2.232 L 9.895999999999999 2.232 C 5.521999999999999 2.232 2.095999999999999 5.659000000000001 2.095999999999999 10.033999999999999 C 2.095999999999999 14.131999999999998 5.281999999999999 17.24 9.561 17.404 L 9.561 21.232 C 9.561 21.34 9.605 21.518 9.681 21.634999999999998 C 9.822999999999999 21.86 10.065 21.982 10.312999999999999 21.982 C 10.450999999999999 21.982 10.589999999999998 21.944 10.714999999999998 21.864 C 10.978999999999997 21.696 17.188 17.724 18.802999999999997 16.358 C 20.705 14.748000000000001 21.842999999999996 12.388 21.845999999999997 10.046 L 21.845999999999997 10.029 C 21.839999999999996 5.662 18.415999999999997 2.242 14.045999999999996 2.2409999999999997 z M 17.833 15.213999999999999 C 16.698999999999998 16.174 12.970999999999998 18.619 11.060999999999998 19.857 L 11.060999999999998 16.67 C 11.060999999999998 16.256 10.725999999999997 15.920000000000002 10.310999999999998 15.920000000000002 L 9.914999999999997 15.920000000000002 C 6.254999999999997 15.920000000000002 3.5969999999999978 13.444000000000003 3.5969999999999978 10.034000000000002 C 3.5969999999999978 6.500000000000003 6.3649999999999975 3.732000000000003 9.896999999999998 3.732000000000003 L 14.043999999999999 3.7420000000000027 L 14.046 3.7420000000000027 C 17.578 3.7420000000000027 20.346 6.508000000000003 20.348 10.038000000000004 C 20.345 11.948000000000004 19.406 13.882000000000003 17.834 15.214000000000004 z" stroke-linecap="round" />
</g>
</svg>