<?xml version="1.0" encoding="UTF-8" standalone="no" ?>
<!DOCTYPE svg PUBLIC "-//W3C//DTD SVG 1.1//EN" "http://www.w3.org/Graphics/SVG/1.1/DTD/svg11.dtd">
<svg xmlns="http://www.w3.org/2000/svg" xmlns:xlink="http://www.w3.org/1999/xlink" version="1.1" width="1080" height="1080" viewBox="0 0 1080 1080" xml:space="preserve">
<desc>Created with Fabric.js 4.2.0</desc>
<defs>
</defs>
<g transform="matrix(1 0 0 1 540 540)" id="310af71c-0ce7-484f-a72c-0d663efb080d"  >
<rect style="stroke: none; stroke-width: 1; stroke-dasharray: none; stroke-linecap: butt; stroke-dashoffset: 0; stroke-linejoin: miter; stroke-miterlimit: 4; fill: rgb(255,255,255); fill-opacity: 0; fill-rule: nonzero; opacity: 1;" vector-effect="non-scaling-stroke"  x="-540" y="-540" rx="0" ry="0" width="1080" height="1080" />
</g>
<g transform="matrix(Infinity NaN NaN Infinity 0 0)" id="a1c9176b-1295-4a97-805d-593b878ba0b6"  >
</g>
<g transform="matrix(47.01 0 0 47.01 -401.24 540)"  >
<g style="" vector-effect="non-scaling-stroke"   >
		<g transform="matrix(1 0 0 1 -29.8 5.95)"  >
<path style="stroke: none; stroke-width: 1; stroke-dasharray: none; stroke-linecap: butt; stroke-dashoffset: 0; stroke-linejoin: miter; stroke-miterlimit: 4; fill: rgb(29,155,240); fill-rule: nonzero; opacity: 1;" vector-effect="non-scaling-stroke"  transform=" translate(37.95, -17.9)" d="M -37.9 18 C -38 17.9 -38 17.9 -38 17.8 C -37.9 17.8 -37.9 17.900000000000002 -37.9 18 z" stroke-linecap="round" />
</g>
		<g transform="matrix(1 0 0 1 -0.55 -1.25)"  >
<path style="stroke: none; stroke-width: 1; stroke-dasharray: none; stroke-linecap: butt; stroke-dashoffset: 0; stroke-linejoin: miter; stroke-miterlimit: 4; fill: rgb(29,155,240); fill-rule: nonzero; opacity: 1;" vector-effect="non-scaling-stroke"  transform=" translate(8.7, -10.7)" d="M -37.9 18 C -38 17.9 -38 17.9 -38 17.8 C -37.9 17.8 -37.9 17.900000000000002 -37.9 18 z M 18 2.2 L 16.7 2.2 L 16.7 1.9000000000000001 C 16.7 1.5 16.4 1.1 15.899999999999999 1.1 C 15.499999999999998 1.1 15.099999999999998 1.4000000000000001 15.099999999999998 1.9000000000000001 L 15.099999999999998 2.2 L 7.7 2.2 L 7.7 1.9000000000000001 C 7.7 1.5 7.4 1.1 6.9 1.1 C 6.5 1.1 6.1000000000000005 1.4000000000000001 6.1000000000000005 1.9000000000000001 L 6.1000000000000005 2.2 L 4.8 2.2 C 3.4 2.2 2.3 3.3000000000000003 2.3 4.7 L 2.3 17.8 C 2.3 19.2 3.4 20.3 4.8 20.3 L 7.699999999999999 20.3 C 8.1 20.3 8.5 20 8.5 19.5 C 8.5 19.1 8.2 18.7 7.7 18.7 L 4.8 18.7 C 4.2 18.7 3.8 18.2 3.8 17.7 L 3.8 7.9 C 3.8 7.6000000000000005 4.2 7.2 4.8 7.2 L 18 7.2 C 18.6 7.2 19 7.6000000000000005 19 7.9 L 19 9.700000000000001 C 19 10.100000000000001 19.3 10.500000000000002 19.8 10.500000000000002 C 20.2 10.500000000000002 20.6 10.200000000000001 20.6 9.700000000000001 L 20.6 4.700000000000001 C 20.5 3.300000000000001 19.400000000000002 2.200000000000001 18 2.200000000000001 z M 19 5.9 C 18.7 5.800000000000001 18.3 5.7 18 5.7 L 4.8 5.7 C 4.3999999999999995 5.7 4.1 5.8 3.8 5.9 L 3.8 4.7 C 3.8 4.1000000000000005 4.3 3.7 4.8 3.7 L 6.1 3.7 L 6.1 4.2 C 6.1 4.6000000000000005 6.3999999999999995 5 6.8999999999999995 5 C 7.3 5 7.699999999999999 4.7 7.699999999999999 4.2 L 7.699999999999999 3.7 L 15.2 3.7 L 15.2 4.2 C 15.2 4.6000000000000005 15.5 5 16 5 C 16.4 5 16.8 4.7 16.8 4.2 L 16.8 3.7 L 18 3.7 C 18.6 3.7 19 4.2 19 4.7 L 19 5.9 z" stroke-linecap="round" />
</g>
		<g transform="matrix(1 0 0 1 23.65 4.65)"  >
<path style="stroke: none; stroke-width: 1; stroke-dasharray: none; stroke-linecap: butt; stroke-dashoffset: 0; stroke-linejoin: miter; stroke-miterlimit: 4; fill: rgb(29,155,240); fill-rule: nonzero; opacity: 1;" vector-effect="non-scaling-stroke"  transform=" translate(-15.5, -16.6)" d="M 15.5 10.4 C 12.1 10.4 9.3 13.2 9.3 16.6 C 9.3 20 12.100000000000001 22.8 15.5 22.8 C 18.9 22.8 21.7 20 21.7 16.6 C 21.7 13.200000000000001 18.9 10.400000000000002 15.5 10.400000000000002 z M 15.5 21.4 C 12.9 21.4 10.8 19.299999999999997 10.8 16.7 C 10.8 14.100000000000001 12.9 12 15.5 12 C 18.1 12 20.2 14.1 20.2 16.7 C 20.2 19.2 18.099999999999998 21.4 15.5 21.4 z" stroke-linecap="round" />
</g>
		<g transform="matrix(1 0 0 1 25.05 4.2)"  >
<path style="stroke: none; stroke-width: 1; stroke-dasharray: none; stroke-linecap: butt; stroke-dashoffset: 0; stroke-linejoin: miter; stroke-miterlimit: 4; fill: rgb(29,155,240); fill-rule: nonzero; opacity: 1;" vector-effect="non-scaling-stroke"  transform=" translate(-16.9, -16.15)" d="M 18.9 18.7 C 18.799999999999997 18.9 18.5 19.099999999999998 18.299999999999997 19.099999999999998 C 18.199999999999996 19.099999999999998 17.999999999999996 19.099999999999998 17.9 18.999999999999996 L 14.799999999999999 16.999999999999996 L 14.799999999999999 13.999999999999996 C 14.799999999999999 13.599999999999996 15.1 13.199999999999996 15.6 13.199999999999996 C 16 13.199999999999996 16.4 13.499999999999996 16.4 13.999999999999996 L 16.4 16.199999999999996 L 18.799999999999997 17.699999999999996 C 18.999999999999996 17.899999999999995 19.099999999999998 18.299999999999997 18.9 18.699999999999996 z" stroke-linecap="round" />
</g>
</g>
</g>
</svg>