<?xml version="1.0" encoding="UTF-8" standalone="no" ?>
<!DOCTYPE svg PUBLIC "-//W3C//DTD SVG 1.1//EN" "http://www.w3.org/Graphics/SVG/1.1/DTD/svg11.dtd">
<svg xmlns="http://www.w3.org/2000/svg" xmlns:xlink="http://www.w3.org/1999/xlink" version="1.1" width="1080" height="1080" viewBox="0 0 1080 1080" xml:space="preserve">
<desc>Created with Fabric.js 4.2.0</desc>
<defs>
</defs>
<rect x="0" y="0" width="100%" height="100%" fill="transparent"></rect>
<g transform="matrix(1 0 0 1 540 540)" id="741caae8-f581-4ce1-994b-5057dff9dc7c"  >
<rect style="stroke: none; stroke-width: 1; stroke-dasharray: none; stroke-linecap: butt; stroke-dashoffset: 0; stroke-linejoin: miter; stroke-miterlimit: 4; fill: rgb(255,255,255); fill-opacity: 0; fill-rule: nonzero; opacity: 1;" vector-effect="non-scaling-stroke"  x="-540" y="-540" rx="0" ry="0" width="1080" height="1080" />
</g>
<g transform="matrix(Infinity NaN NaN Infinity 0 0)" id="1ee9c780-4e74-4ab4-abba-be78139bdb55"  >
</g>
<g transform="matrix(53.18 0 0 53.18 540 540)" id="969ce576-650d-4b95-bc4b-b8424d88a271"  >
<path style="stroke: rgb(29,155,240); stroke-width: 0; stroke-dasharray: none; stroke-linecap: butt; stroke-dashoffset: 0; stroke-linejoin: miter; stroke-miterlimit: 4; fill: rgb(29,155,240); fill-rule: nonzero; opacity: 1;" vector-effect="non-scaling-stroke"  transform=" translate(-12, -12.09)" d="M 20.222 9.16 L 18.888 9.16 C 18.903000000000002 9.07 18.916 8.978 18.916 8.883000000000001 L 18.916 6.57 C 18.916 5.59 18.119 4.793 17.138 4.793 L 3.5 4.793 L 3.5 3.358 C 3.5 2.944 3.164 2.608 2.75 2.608 C 2.336 2.608 2 2.944 2 3.358 L 2 20.83 C 2 21.244999999999997 2.336 21.58 2.75 21.58 C 3.164 21.58 3.5 21.244999999999997 3.5 20.83 L 3.5 19.395999999999997 L 14.056 19.395999999999997 C 15.036 19.395999999999997 15.834 18.598999999999997 15.834 17.618999999999996 L 15.834 15.305999999999996 C 15.834 15.210999999999995 15.82 15.118999999999996 15.806 15.027999999999995 L 20.223 15.027999999999995 C 21.203 15.027999999999995 22.000999999999998 14.229999999999995 22.000999999999998 13.249999999999995 L 22.000999999999998 10.939999999999994 C 22.000999999999998 9.956999999999994 21.203999999999997 9.159999999999995 20.223 9.159999999999995 z M 17.14 6.293 C 17.292 6.293 17.417 6.417 17.417 6.57 L 17.417 8.88 C 17.417 9.034 17.292 9.16 17.139000000000003 9.16 L 3.5 9.16 L 3.5 6.29 L 17.14 6.29 z M 14.333 15.306999999999999 L 14.333 17.619 C 14.333 17.772 14.208 17.896 14.055 17.896 L 3.5 17.896 L 3.5 15.028 L 14.056 15.028 C 14.209 15.028 14.332999999999998 15.154 14.332999999999998 15.308 z M 20.5 13.25 C 20.5 13.403 20.375 13.527 20.222 13.527 L 3.5 13.527 L 3.5 10.66 L 20.222 10.66 C 20.375 10.66 20.5 10.784 20.5 10.937 L 20.5 13.25 z" stroke-linecap="round" />
</g>
</svg>