<?xml version="1.0" encoding="UTF-8" standalone="no" ?>
<!DOCTYPE svg PUBLIC "-//W3C//DTD SVG 1.1//EN" "http://www.w3.org/Graphics/SVG/1.1/DTD/svg11.dtd">
<svg xmlns="http://www.w3.org/2000/svg" xmlns:xlink="http://www.w3.org/1999/xlink" version="1.1" width="1080" height="1080" viewBox="0 0 1080 1080" xml:space="preserve">
<desc>Created with Fabric.js 4.2.0</desc>
<defs>
</defs>
<rect x="0" y="0" width="100%" height="100%" fill="transparent"></rect>
<g transform="matrix(1 0 0 1 540 540)" id="741caae8-f581-4ce1-994b-5057dff9dc7c"  >
<rect style="stroke: none; stroke-width: 1; stroke-dasharray: none; stroke-linecap: butt; stroke-dashoffset: 0; stroke-linejoin: miter; stroke-miterlimit: 4; fill: rgb(255,255,255); fill-opacity: 0; fill-rule: nonzero; opacity: 1;" vector-effect="non-scaling-stroke"  x="-540" y="-540" rx="0" ry="0" width="1080" height="1080" />
</g>
<g transform="matrix(Infinity NaN NaN Infinity 0 0)" id="1ee9c780-4e74-4ab4-abba-be78139bdb55"  >
</g>
<g transform="matrix(49.67 0 0 49.67 540 540)"  >
<g style="" vector-effect="non-scaling-stroke"   >
		<g transform="matrix(1 0 0 1 -0.05 -0.02)"  >
<path style="stroke: none; stroke-width: 1; stroke-dasharray: none; stroke-linecap: butt; stroke-dashoffset: 0; stroke-linejoin: miter; stroke-miterlimit: 4; fill: rgb(29,155,240); fill-rule: nonzero; opacity: 1;" vector-effect="non-scaling-stroke"  transform=" translate(-11.95, -12)" d="M 19 10.5 L 19 8.8 L 14.6 8.8 L 14.6 15.200000000000001 L 16.3 15.200000000000001 L 16.3 13.200000000000001 L 18.3 13.200000000000001 L 18.3 11.500000000000002 L 16.3 11.500000000000002 L 16.3 10.500000000000002 L 19 10.500000000000002 z M 11.7 8.8 L 13.399999999999999 8.8 L 13.399999999999999 15.200000000000001 L 11.7 15.200000000000001 L 11.7 8.8 z M 8.1 10.4 C 8.5 10.4 9 10.6 9.299999999999999 10.9 L 10.499999999999998 9.9 C 9.9 9.2 9 8.8 8.1 8.8 C 6.3 8.8 4.8999999999999995 10.200000000000001 4.8999999999999995 12 C 4.8999999999999995 13.799999999999999 6.299999999999999 15.2 8.1 15.2 C 9.1 15.2 9.9 14.799999999999999 10.5 14.1 L 10.5 11.6 L 7.7 11.6 L 7.7 12.799999999999999 L 8.9 12.799999999999999 L 8.9 13.399999999999999 C 8.700000000000001 13.499999999999998 8.4 13.599999999999998 8.1 13.599999999999998 C 7.199999999999999 13.599999999999998 6.5 12.899999999999999 6.5 11.999999999999998 C 6.5 11.199999999999998 7.2 10.399999999999999 8.1 10.399999999999999 z" stroke-linecap="round" />
</g>
		<g transform="matrix(1 0 0 1 0 0)"  >
<path style="stroke: none; stroke-width: 1; stroke-dasharray: none; stroke-linecap: butt; stroke-dashoffset: 0; stroke-linejoin: miter; stroke-miterlimit: 4; fill: rgb(29,155,240); fill-rule: nonzero; opacity: 1;" vector-effect="non-scaling-stroke"  transform=" translate(-12, -12.02)" d="M 20.5 2.02 L 3.5 2.02 C 2.26 2.02 1.25 3.027 1.25 4.2669999999999995 L 1.25 19.774 C 1.25 21.012 2.26 22.02 3.5 22.02 L 20.5 22.02 C 21.74 22.02 22.75 21.012 22.75 19.774 L 22.75 4.267 C 22.75 3.027 21.74 2.0200000000000005 20.5 2.0200000000000005 z M 21.25 19.774 C 21.25 20.184 20.914 20.52 20.5 20.52 L 3.5 20.52 C 3.086 20.52 2.75 20.184 2.75 19.774 L 2.75 4.267 C 2.75 3.8550000000000004 3.086 3.5200000000000005 3.5 3.5200000000000005 L 20.5 3.5200000000000005 C 20.914 3.5200000000000005 21.25 3.8550000000000004 21.25 4.267 L 21.25 19.774 z" stroke-linecap="round" />
</g>
</g>
</g>
</svg>