<?xml version="1.0" encoding="UTF-8" standalone="no" ?>
<!DOCTYPE svg PUBLIC "-//W3C//DTD SVG 1.1//EN" "http://www.w3.org/Graphics/SVG/1.1/DTD/svg11.dtd">
<svg xmlns="http://www.w3.org/2000/svg" xmlns:xlink="http://www.w3.org/1999/xlink" version="1.1" width="1080" height="1080" viewBox="0 0 1080 1080" xml:space="preserve">
<desc>Created with Fabric.js 4.2.0</desc>
<defs>
</defs>
<g transform="matrix(1 0 0 1 540 540)" id="741caae8-f581-4ce1-994b-5057dff9dc7c"  >
<rect style="stroke: none; stroke-width: 1; stroke-dasharray: none; stroke-linecap: butt; stroke-dashoffset: 0; stroke-linejoin: miter; stroke-miterlimit: 4; fill: rgb(255,255,255); fill-opacity: 0; fill-rule: nonzero; opacity: 1;" vector-effect="non-scaling-stroke"  x="-540" y="-540" rx="0" ry="0" width="1080" height="1080" />
</g>
<g transform="matrix(Infinity NaN NaN Infinity 0 0)" id="1ee9c780-4e74-4ab4-abba-be78139bdb55"  >
</g>
<g transform="matrix(51.49 0 0 51.49 540 540)"  >
<g style="" vector-effect="non-scaling-stroke"   >
		<g transform="matrix(1 0 0 1 0 0)"  >
<path style="stroke: none; stroke-width: 1; stroke-dasharray: none; stroke-linecap: butt; stroke-dashoffset: 0; stroke-linejoin: miter; stroke-miterlimit: 4; fill: rgb(29,155,240); fill-rule: nonzero; opacity: 1;" vector-effect="non-scaling-stroke"  transform=" translate(-12, -12)" d="M 19.75 2 L 4.25 2 C 3.01 2 2 3.01 2 4.25 L 2 19.75 C 2 20.99 3.01 22 4.25 22 L 19.75 22 C 20.99 22 22 20.99 22 19.75 L 22 4.25 C 22 3.01 20.99 2 19.75 2 z M 4.25 3.5 L 19.75 3.5 C 20.163 3.5 20.5 3.837 20.5 4.25 L 20.5 13.926 L 16.642 10.068 C 16.502 9.927999999999999 16.312 9.847999999999999 16.112 9.847999999999999 L 16.108999999999998 9.847999999999999 C 15.908999999999999 9.847999999999999 15.715999999999998 9.927999999999999 15.576999999999998 10.072 L 11.259999999999998 14.456 L 9.446999999999997 12.649999999999999 C 9.306999999999997 12.509999999999998 9.116999999999997 12.429999999999998 8.916999999999998 12.429999999999998 C 8.723999999999998 12.399999999999999 8.521999999999998 12.509999999999998 8.381999999999998 12.656999999999998 L 3.5 17.642 L 3.5 4.25 C 3.5 3.837 3.837 3.5 4.25 3.5 z M 3.5060000000000002 19.78 L 8.924 14.246000000000002 L 15.206 20.5 L 4.25 20.5 C 3.848 20.5 3.523 20.178 3.5060000000000002 19.78 z M 19.75 20.5 L 17.33 20.5 L 12.322999999999999 15.513 L 16.115 11.663 L 20.5 16.047 L 20.5 19.75 C 20.5 20.163 20.163 20.5 19.75 20.5 z" stroke-linecap="round" />
</g>
		<g transform="matrix(1 0 0 1 -3.13 -3.69)"  >
<circle style="stroke: none; stroke-width: 1; stroke-dasharray: none; stroke-linecap: butt; stroke-dashoffset: 0; stroke-linejoin: miter; stroke-miterlimit: 4; fill: rgb(29,155,240); fill-rule: nonzero; opacity: 1;" vector-effect="non-scaling-stroke"  cx="0" cy="0" r="1.542" />
</g>
</g>
</g>
</svg>