<?xml version="1.0" encoding="UTF-8" standalone="no" ?>
<!DOCTYPE svg PUBLIC "-//W3C//DTD SVG 1.1//EN" "http://www.w3.org/Graphics/SVG/1.1/DTD/svg11.dtd">
<svg xmlns="http://www.w3.org/2000/svg" xmlns:xlink="http://www.w3.org/1999/xlink" version="1.1" width="1080" height="1080" viewBox="0 0 1080 1080" xml:space="preserve">
<desc>Created with Fabric.js 4.2.0</desc>
<defs>
</defs>
<rect x="0" y="0" width="100%" height="100%" fill="transparent"></rect>
<g transform="matrix(1 0 0 1 540 540)" id="cc90a070-4664-4ce3-84f3-4c99bd9ee134"  >
<rect style="stroke: none; stroke-width: 1; stroke-dasharray: none; stroke-linecap: butt; stroke-dashoffset: 0; stroke-linejoin: miter; stroke-miterlimit: 4; fill: rgb(255,255,255); fill-opacity: 0; fill-rule: nonzero; opacity: 1;" vector-effect="non-scaling-stroke"  x="-540" y="-540" rx="0" ry="0" width="1080" height="1080" />
</g>
<g transform="matrix(Infinity NaN NaN Infinity 0 0)" id="4aeeacd7-dafc-48b9-a059-9eadac87eb4b"  >
</g>
<g transform="matrix(52.72 0 0 52.72 540 540)" id="7162a21f-336f-431f-a2d3-567867b015f7"  >
<path style="stroke: rgb(0,0,0); stroke-width: 0; stroke-dasharray: none; stroke-linecap: butt; stroke-dashoffset: 0; stroke-linejoin: miter; stroke-miterlimit: 4; fill: rgb(0,0,0); fill-rule: nonzero; opacity: 1;" vector-effect="non-scaling-stroke"  transform=" translate(-12, -13.43)" d="M 19.9 23.5 C 19.743 23.5 19.587999999999997 23.45 19.458 23.356 L 12 17.928 L 4.542 23.358 C 4.314 23.522000000000002 4.012 23.548000000000002 3.76 23.418 C 3.51 23.291 3.3499999999999996 23.032999999999998 3.3499999999999996 22.750999999999998 L 3.3499999999999996 5.6 C 3.3499999999999996 4.359999999999999 4.359999999999999 3.3499999999999996 5.6 3.3499999999999996 L 18.398 3.3499999999999996 C 19.637999999999998 3.3499999999999996 20.648 4.359999999999999 20.648 5.6 L 20.648 22.75 C 20.648 23.032 20.49 23.29 20.238 23.418 C 20.131999999999998 23.473 20.015 23.5 19.898 23.5 z M 12 16.25 C 12.155 16.25 12.31 16.298 12.44 16.394 L 19.15 21.276999999999997 L 19.15 5.6 C 19.15 5.188 18.813 4.85 18.4 4.85 L 5.6 4.85 C 5.186999999999999 4.85 4.85 5.188 4.85 5.6 L 4.85 21.277 L 11.559999999999999 16.394000000000002 C 11.69 16.298000000000002 11.844999999999999 16.250000000000004 11.999999999999998 16.250000000000004 z" stroke-linecap="round" />
</g>
</svg>