<?xml version="1.0" encoding="UTF-8" standalone="no" ?>
<!DOCTYPE svg PUBLIC "-//W3C//DTD SVG 1.1//EN" "http://www.w3.org/Graphics/SVG/1.1/DTD/svg11.dtd">
<svg xmlns="http://www.w3.org/2000/svg" xmlns:xlink="http://www.w3.org/1999/xlink" version="1.1" width="1080" height="1080" viewBox="0 0 1080 1080" xml:space="preserve">
<desc>Created with Fabric.js 4.2.0</desc>
<defs>
</defs>
<rect x="0" y="0" width="100%" height="100%" fill="transparent"></rect>
<g transform="matrix(1 0 0 1 540 540)" id="cc90a070-4664-4ce3-84f3-4c99bd9ee134"  >
<rect style="stroke: none; stroke-width: 1; stroke-dasharray: none; stroke-linecap: butt; stroke-dashoffset: 0; stroke-linejoin: miter; stroke-miterlimit: 4; fill: rgb(255,255,255); fill-opacity: 0; fill-rule: nonzero; opacity: 1;" vector-effect="non-scaling-stroke"  x="-540" y="-540" rx="0" ry="0" width="1080" height="1080" />
</g>
<g transform="matrix(Infinity NaN NaN Infinity 0 0)" id="4aeeacd7-dafc-48b9-a059-9eadac87eb4b"  >
</g>
<g transform="matrix(53.74 0 0 53.51 540 540)" id="8a34c423-a97c-462a-8806-5d8a009478f3"  >
<path style="stroke: rgb(0,0,0); stroke-width: 0; stroke-dasharray: none; stroke-linecap: butt; stroke-dashoffset: 0; stroke-linejoin: miter; stroke-miterlimit: 4; fill: rgb(0,0,0); fill-rule: nonzero; opacity: 1;" vector-effect="non-scaling-stroke"  transform=" translate(-11.9, -13.45)" d="M 19.9 23.5 C 19.7 23.5 19.599999999999998 23.5 19.5 23.4 L 12 17.9 L 4.5 23.299999999999997 C 4.3 23.499999999999996 4 23.499999999999996 3.7 23.4 C 3.5 23.299999999999997 3.3000000000000003 23 3.3000000000000003 22.7 L 3.3000000000000003 5.6 C 3.3000000000000003 4.3999999999999995 4.300000000000001 3.3999999999999995 5.5 3.3999999999999995 L 18.3 3.3999999999999995 C 19.5 3.3999999999999995 20.5 4.3999999999999995 20.5 5.6 L 20.5 22.700000000000003 C 20.5 23.000000000000004 20.3 23.200000000000003 20.1 23.400000000000002 C 20.1 23.500000000000004 20 23.500000000000004 19.900000000000002 23.500000000000004 z" stroke-linecap="round" />
</g>
</svg>