<?xml version="1.0" encoding="UTF-8" standalone="no" ?>
<!DOCTYPE svg PUBLIC "-//W3C//DTD SVG 1.1//EN" "http://www.w3.org/Graphics/SVG/1.1/DTD/svg11.dtd">
<svg xmlns="http://www.w3.org/2000/svg" xmlns:xlink="http://www.w3.org/1999/xlink" version="1.1" width="1080" height="1080" viewBox="0 0 1080 1080" xml:space="preserve">
<desc>Created with Fabric.js 4.2.0</desc>
<defs>
</defs>
<g transform="matrix(1 0 0 1 540 540)" id="b175367a-b2a5-4849-9045-0c2bcb84df8a"  >
<rect style="stroke: none; stroke-width: 1; stroke-dasharray: none; stroke-linecap: butt; stroke-dashoffset: 0; stroke-linejoin: miter; stroke-miterlimit: 4; fill: rgb(255,255,255); fill-opacity: 0; fill-rule: nonzero; opacity: 1;" vector-effect="non-scaling-stroke"  x="-540" y="-540" rx="0" ry="0" width="1080" height="1080" />
</g>
<g transform="matrix(Infinity NaN NaN Infinity 0 0)" id="217284ce-0ba5-49c2-80ed-e366da5cead8"  >
</g>
<g transform="matrix(50.55 0 0 50.55 540 540)" id="75431837-966a-4f9d-87b8-eebed8ebc94f"  >
<path style="stroke: rgb(0,0,0); stroke-width: 0; stroke-dasharray: none; stroke-linecap: butt; stroke-dashoffset: 0; stroke-linejoin: miter; stroke-miterlimit: 4; fill: rgb(29,155,240); fill-rule: nonzero; opacity: 1;" vector-effect="non-scaling-stroke"  transform=" translate(-12, -12)" d="M 12 1.5 C 6.2 1.5 1.5 6.2 1.5 12 C 1.5 17.8 6.2 22.5 12 22.5 C 17.8 22.5 22.5 17.8 22.5 12 C 22.5 6.199999999999999 17.8 1.5 12 1.5 z M 9.047 5.9 C 8.169 6.384 7.827000000000001 6.474 7.561000000000001 6.758 C 7.298000000000001 7.042 6.898000000000001 8.355 6.721000000000001 8.47 C 6.544000000000001 8.585 5.259000000000001 8.624 5.259000000000001 8.624 C 5.259000000000001 8.624 7.407000000000002 10.298 8.112000000000002 10.456000000000001 C 8.818000000000001 10.614 10.542000000000002 10.246 10.882000000000001 10.314000000000002 C 11.224000000000002 10.384000000000002 12.998000000000001 11.984000000000002 13.206000000000001 12.388000000000002 C 13.414000000000001 12.792000000000002 13.372000000000002 14.136000000000001 13.168000000000001 14.332 C 12.964 14.528 11.985000000000001 15.422 11.775 15.722000000000001 C 11.565 16.022000000000002 9.881 19.8 9.681000000000001 19.802 C 9.481000000000002 19.802 9.061000000000002 19.238 8.951 18.954 C 8.841000000000001 18.67 8.524000000000001 14.942 8.361 14.691 C 8.198 14.441 7.235000000000001 13.871 7.085000000000001 13.665000000000001 C 6.9350000000000005 13.458 6.533000000000001 12.278 6.558000000000001 12.048000000000002 C 6.582000000000001 11.818000000000001 7.050000000000001 11.041000000000002 6.932 10.834000000000001 C 6.815 10.627 4.7250000000000005 9.801000000000002 4.322000000000001 9.654000000000002 C 3.919000000000001 9.509000000000002 3.339000000000001 9.322000000000001 3.339000000000001 9.322000000000001 C 4.469000000000001 5.670000000000001 7.854000000000001 3.0040000000000013 11.859 2.942000000000001 C 11.859 2.942000000000001 11.984 2.9240000000000013 12.045 3.082000000000001 C 12.155 3.368000000000001 12.301 4.160000000000001 12.137 4.427000000000001 C 11.994 4.657000000000002 9.927 5.417000000000002 9.049 5.901000000000002 z M 20.191000000000003 14.14 C 19.981 13.757000000000001 18.969 11.790000000000001 18.598000000000003 11.456 C 18.368000000000002 11.248 16.398000000000003 10.543999999999999 16.048000000000002 10.366 C 15.696000000000002 10.189 14.790000000000003 9.369 14.781000000000002 9.152999999999999 C 14.771000000000003 8.937 15.896000000000003 7.948999999999999 15.931000000000003 7.628999999999999 C 15.987000000000002 7.1389999999999985 14.049000000000003 5.793999999999999 14.034000000000002 5.574999999999999 C 14.019000000000002 5.3549999999999995 14.181000000000003 4.914999999999999 14.344000000000003 4.764999999999999 C 14.747000000000003 4.4049999999999985 17.534000000000002 4.804999999999999 17.900000000000002 5.124999999999999 C 19.900000000000002 6.881999999999999 21.068 9.251 21.068 11.998 C 21.068 12.774 20.888 13.91 20.786 14.177999999999999 C 20.706000000000003 14.388 20.343 14.409999999999998 20.191000000000003 14.138 z" stroke-linecap="round" />
</g>
</svg>