<?xml version="1.0" encoding="UTF-8" standalone="no" ?>
<!DOCTYPE svg PUBLIC "-//W3C//DTD SVG 1.1//EN" "http://www.w3.org/Graphics/SVG/1.1/DTD/svg11.dtd">
<svg xmlns="http://www.w3.org/2000/svg" xmlns:xlink="http://www.w3.org/1999/xlink" version="1.1" width="1080" height="1080" viewBox="0 0 1080 1080" xml:space="preserve">
<desc>Created with Fabric.js 4.2.0</desc>
<defs>
</defs>
<rect x="0" y="0" width="100%" height="100%" fill="transparent"></rect>
<g transform="matrix(1 0 0 1 540 540)" id="76e11a60-e319-49c4-bf41-8795ea8c1090"  >
<rect style="stroke: none; stroke-width: 1; stroke-dasharray: none; stroke-linecap: butt; stroke-dashoffset: 0; stroke-linejoin: miter; stroke-miterlimit: 4; fill: rgb(255,255,255); fill-opacity: 0; fill-rule: nonzero; opacity: 1;" vector-effect="non-scaling-stroke"  x="-540" y="-540" rx="0" ry="0" width="1080" height="1080" />
</g>
<g transform="matrix(Infinity NaN NaN Infinity 0 0)" id="1c0d5247-582a-4cb5-b05f-8a0f56f40f6b"  >
</g>
<g transform="matrix(54.26 0 0 54.26 540 540)" id="2cc9225b-38f3-4bee-ab2f-b167d6d2a04d"  >
<path style="stroke: rgb(0,0,0); stroke-width: 0; stroke-dasharray: none; stroke-linecap: butt; stroke-dashoffset: 0; stroke-linejoin: miter; stroke-miterlimit: 4; fill: rgb(0,0,0); fill-rule: nonzero; opacity: 1;" vector-effect="non-scaling-stroke"  transform=" translate(-12, -12)" d="M 20.585 9.468 C 21.245 9.468 21.785 8.93 21.785 8.268 C 21.785 7.606000000000001 21.245 7.0680000000000005 20.585 7.0680000000000005 L 17.365000000000002 7.0680000000000005 L 17.675 3.5210000000000004 C 17.702 3.2030000000000003 17.605 2.8910000000000005 17.398 2.6460000000000004 C 17.192 2.4010000000000002 16.903 2.2500000000000004 16.576 2.2210000000000005 C 15.926 2.1860000000000004 15.341000000000001 2.6530000000000005 15.283000000000001 3.3140000000000005 L 14.957 7.0680000000000005 L 9.9 7.0680000000000005 L 10.208 3.5230000000000006 C 10.268 2.8650000000000007 9.778 2.2810000000000006 9.111 2.2210000000000005 C 8.446000000000002 2.1710000000000007 7.876 2.6510000000000007 7.8180000000000005 3.3130000000000006 L 7.493 7.067 L 4.163 7.067 C 3.5 7.067 2.963 7.605 2.963 8.267 C 2.963 8.929 3.5010000000000003 9.466999999999999 4.163 9.466999999999999 L 7.285 9.466999999999999 L 6.845 14.530999999999999 L 3.416 14.530999999999999 C 2.754 14.530999999999999 2.216 15.070999999999998 2.216 15.730999999999998 C 2.216 16.391 2.7540000000000004 16.933 3.4160000000000004 16.933 L 6.636000000000001 16.933 L 6.326000000000001 20.481 C 6.269000000000001 21.138 6.758000000000002 21.721 7.416000000000001 21.781000000000002 L 7.522000000000001 21.786 C 8.148000000000001 21.786 8.662 21.314 8.717 20.688000000000002 L 9.044 16.935000000000002 L 14.1 16.935000000000002 L 13.792 20.479000000000003 C 13.732 21.137000000000004 14.222 21.721000000000004 14.882 21.781000000000002 L 14.988 21.786 C 15.605 21.786 16.13 21.304000000000002 16.183 20.688000000000002 L 16.508 16.935000000000002 L 19.838 16.935000000000002 C 20.498 16.935000000000002 21.038 16.395000000000003 21.038 15.735000000000003 C 21.038 15.075000000000003 20.498 14.533000000000003 19.838 14.533000000000003 L 16.716 14.533000000000003 L 17.156000000000002 9.469000000000003 L 20.586000000000002 9.469000000000003 z M 14.747 9.468 L 14.307 14.530999999999999 L 9.253 14.530999999999999 L 9.693 9.468999999999998 L 14.748 9.468999999999998 z" stroke-linecap="round" />
</g>
</svg>