<?xml version="1.0" encoding="UTF-8" standalone="no" ?>
<!DOCTYPE svg PUBLIC "-//W3C//DTD SVG 1.1//EN" "http://www.w3.org/Graphics/SVG/1.1/DTD/svg11.dtd">
<svg xmlns="http://www.w3.org/2000/svg" xmlns:xlink="http://www.w3.org/1999/xlink" version="1.1" width="1080" height="1080" viewBox="0 0 1080 1080" xml:space="preserve">
<desc>Created with Fabric.js 4.2.0</desc>
<defs>
</defs>
<rect x="0" y="0" width="100%" height="100%" fill="transparent"></rect>
<g transform="matrix(1 0 0 1 540 540)" id="76e11a60-e319-49c4-bf41-8795ea8c1090"  >
<rect style="stroke: none; stroke-width: 1; stroke-dasharray: none; stroke-linecap: butt; stroke-dashoffset: 0; stroke-linejoin: miter; stroke-miterlimit: 4; fill: rgb(255,255,255); fill-opacity: 0; fill-rule: nonzero; opacity: 1;" vector-effect="non-scaling-stroke"  x="-540" y="-540" rx="0" ry="0" width="1080" height="1080" />
</g>
<g transform="matrix(Infinity NaN NaN Infinity 0 0)" id="1c0d5247-582a-4cb5-b05f-8a0f56f40f6b"  >
</g>
<g transform="matrix(52.86 0 0 52.86 540 540)" id="73cf8dcb-8b47-4a02-9202-7d62ed374174"  >
<path style="stroke: rgb(0,0,0); stroke-width: 0; stroke-dasharray: none; stroke-linecap: butt; stroke-dashoffset: 0; stroke-linejoin: miter; stroke-miterlimit: 4; fill: rgb(0,0,0); fill-rule: nonzero; opacity: 1;" vector-effect="non-scaling-stroke"  transform=" translate(-12, -12)" d="M 21 7.337 L 17.07 7.337 L 17.442 3.0649999999999995 C 17.478 2.6529999999999996 17.172 2.2899999999999996 16.76 2.2529999999999992 C 16.343 2.2229999999999994 15.984000000000002 2.5229999999999992 15.948000000000002 2.935999999999999 L 15.565000000000001 7.335999999999999 L 9.245000000000001 7.335999999999999 L 9.615 3.066 C 9.652000000000001 2.653 9.345 2.29 8.935 2.253 C 8.515 2.2230000000000003 8.158000000000001 2.523 8.122 2.936 L 7.74 7.336 L 3.782 7.336 C 3.368 7.336 3.032 7.673 3.032 8.086 C 3.032 8.499 3.368 8.836 3.782 8.836 L 7.61 8.836 L 7.0600000000000005 15.163 L 3 15.163 C 2.586 15.163 2.25 15.499 2.25 15.913 C 2.25 16.326999999999998 2.586 16.663 3 16.663 L 6.93 16.663 L 6.558 20.935000000000002 C 6.522 21.347 6.827999999999999 21.71 7.24 21.747000000000003 L 7.306 21.750000000000004 C 7.691 21.750000000000004 8.018 21.455000000000002 8.052 21.064000000000004 L 8.434999999999999 16.664 L 14.754999999999999 16.664 L 14.385 20.934 C 14.349 21.347 14.655 21.71 15.067 21.747 L 15.133000000000001 21.75 C 15.518 21.75 15.845 21.455 15.879000000000001 21.064 L 16.261000000000003 16.664 L 20.218000000000004 16.664 C 20.631000000000004 16.664 20.968000000000004 16.327 20.968000000000004 15.914000000000001 C 20.968000000000004 15.501000000000001 20.631000000000004 15.164000000000001 20.218000000000004 15.164000000000001 L 16.39 15.164000000000001 L 16.94 8.837000000000002 L 21 8.837000000000002 C 21.414 8.837000000000002 21.75 8.501000000000001 21.75 8.087000000000002 C 21.75 7.673000000000002 21.414 7.3370000000000015 21 7.3370000000000015 z M 14.885 15.163 L 8.565 15.163 L 9.115 8.837 L 15.435 8.837 L 14.885 15.163 z" stroke-linecap="round" />
</g>
</svg>