<?xml version="1.0" encoding="UTF-8" standalone="no" ?>
<!DOCTYPE svg PUBLIC "-//W3C//DTD SVG 1.1//EN" "http://www.w3.org/Graphics/SVG/1.1/DTD/svg11.dtd">
<svg xmlns="http://www.w3.org/2000/svg" xmlns:xlink="http://www.w3.org/1999/xlink" version="1.1" width="1080" height="1080" viewBox="0 0 1080 1080" xml:space="preserve">
<desc>Created with Fabric.js 4.2.0</desc>
<defs>
</defs>
<rect x="0" y="0" width="100%" height="100%" fill="transparent"></rect>
<g transform="matrix(1 0 0 1 540 540)" id="76e11a60-e319-49c4-bf41-8795ea8c1090"  >
<rect style="stroke: none; stroke-width: 1; stroke-dasharray: none; stroke-linecap: butt; stroke-dashoffset: 0; stroke-linejoin: miter; stroke-miterlimit: 4; fill: rgb(255,255,255); fill-opacity: 0; fill-rule: nonzero; opacity: 1;" vector-effect="non-scaling-stroke"  x="-540" y="-540" rx="0" ry="0" width="1080" height="1080" />
</g>
<g transform="matrix(Infinity NaN NaN Infinity 0 0)" id="1c0d5247-582a-4cb5-b05f-8a0f56f40f6b"  >
</g>
<g transform="matrix(48 0 0 48 540 540)" id="8078636c-a350-43a8-9851-1cfebea902ba"  >
<path style="stroke: rgb(0,0,0); stroke-width: 0; stroke-dasharray: none; stroke-linecap: butt; stroke-dashoffset: 0; stroke-linejoin: miter; stroke-miterlimit: 4; fill: rgb(0,0,0); fill-rule: nonzero; opacity: 1;" vector-effect="non-scaling-stroke"  transform=" translate(-12, -11.9)" d="M 22.58 7.35 L 12.475 1.897 C 12.177999999999999 1.737 11.821 1.737 11.525 1.897 L 1.425 7.35 C 0.9390000000000001 7.614 0.758 8.219999999999999 1.02 8.706 C 1.2 9.041 1.545 9.231 1.9 9.231 C 2.06 9.231 2.2239999999999998 9.193 2.375 9.111 L 3.109 8.715 L 4.699 19.965 C 4.915 21.179 6.009 22.027 7.359 22.027 L 16.641 22.027 C 17.991 22.027 19.084999999999997 21.179000000000002 19.302999999999997 19.939 L 20.891 8.714 L 21.627999999999997 9.112 C 22.112999999999996 9.375 22.719999999999995 9.194 22.981999999999996 8.708 C 23.244999999999997 8.222 23.061999999999994 7.615 22.577999999999996 7.353 z M 12 15.435 C 10.205 15.435 8.75 13.98 8.75 12.185 C 8.75 10.39 10.205 8.935 12 8.935 C 13.795 8.935 15.25 10.39 15.25 12.185 C 15.25 13.98 13.795 15.435 12 15.435 z" stroke-linecap="round" />
</g>
</svg>