<?xml version="1.0" encoding="UTF-8" standalone="no" ?>
<!DOCTYPE svg PUBLIC "-//W3C//DTD SVG 1.1//EN" "http://www.w3.org/Graphics/SVG/1.1/DTD/svg11.dtd">
<svg xmlns="http://www.w3.org/2000/svg" xmlns:xlink="http://www.w3.org/1999/xlink" version="1.1" width="1080" height="1080" viewBox="0 0 1080 1080" xml:space="preserve">
<desc>Created with Fabric.js 4.2.0</desc>
<defs>
</defs>
<g transform="matrix(1 0 0 1 540 540)" id="76e11a60-e319-49c4-bf41-8795ea8c1090"  >
<rect style="stroke: none; stroke-width: 1; stroke-dasharray: none; stroke-linecap: butt; stroke-dashoffset: 0; stroke-linejoin: miter; stroke-miterlimit: 4; fill: rgb(255,255,255); fill-opacity: 0; fill-rule: nonzero; opacity: 1;" vector-effect="non-scaling-stroke"  x="-540" y="-540" rx="0" ry="0" width="1080" height="1080" />
</g>
<g transform="matrix(Infinity NaN NaN Infinity 0 0)" id="1c0d5247-582a-4cb5-b05f-8a0f56f40f6b"  >
</g>
<g transform="matrix(49.45 0 0 49.45 540 540)"  >
<g style="" vector-effect="non-scaling-stroke"   >
		<g transform="matrix(1 0 0 1 0 0)"  >
<path style="stroke: none; stroke-width: 1; stroke-dasharray: none; stroke-linecap: butt; stroke-dashoffset: 0; stroke-linejoin: miter; stroke-miterlimit: 4; fill: rgb(0,0,0); fill-rule: nonzero; opacity: 1;" vector-effect="non-scaling-stroke"  transform=" translate(-12, -12.03)" d="M 22.46 7.57 L 12.357 2.115 C 12.133999999999999 1.995 11.866999999999999 1.995 11.644 2.115 L 1.543 7.57 C 1.1789999999999998 7.767 1.043 8.222 1.24 8.587 C 1.375 8.837 1.634 8.98 1.9 8.98 C 2.02 8.98 2.143 8.950000000000001 2.256 8.89 L 3.0709999999999997 8.450000000000001 L 4.7 19.963 C 4.914000000000001 21.178 6.008 22.025000000000002 7.3580000000000005 22.025000000000002 L 16.64 22.025000000000002 C 17.992 22.025000000000002 19.085 21.177000000000003 19.303 19.938000000000002 L 20.929000000000002 8.448000000000002 L 21.747000000000003 8.890000000000002 C 22.111000000000004 9.083000000000002 22.567000000000004 8.950000000000003 22.764000000000003 8.586000000000002 C 22.960000000000004 8.223000000000003 22.824 7.7680000000000025 22.460000000000004 7.570000000000002 z M 17.822000000000003 19.703 C 17.715000000000003 20.309 17.119000000000003 20.525 16.642000000000003 20.525 L 7.36 20.525 C 6.880000000000001 20.525 6.285 20.308999999999997 6.182 19.726999999999997 L 4.48 7.69 L 12 3.628 L 19.522 7.688 L 17.822 19.703 z" stroke-linecap="round" />
</g>
		<g transform="matrix(1 0 0 1 0 0.16)"  >
<path style="stroke: none; stroke-width: 1; stroke-dasharray: none; stroke-linecap: butt; stroke-dashoffset: 0; stroke-linejoin: miter; stroke-miterlimit: 4; fill: rgb(0,0,0); fill-rule: nonzero; opacity: 1;" vector-effect="non-scaling-stroke"  transform=" translate(-12, -12.18)" d="M 8.22 12.184 C 8.22 14.267999999999999 9.915000000000001 15.963999999999999 12 15.963999999999999 C 14.084999999999999 15.963999999999999 15.78 14.267999999999999 15.78 12.184 C 15.78 10.1 14.084999999999999 8.404 12 8.404 C 9.915000000000001 8.404 8.22 10.1 8.22 12.184 z M 14.280000000000001 12.184 C 14.280000000000001 13.442 13.258000000000001 14.463999999999999 12.000000000000002 14.463999999999999 C 10.742000000000003 14.463999999999999 9.720000000000002 13.441999999999998 9.720000000000002 12.184 C 9.720000000000002 10.926 10.742000000000003 9.904 12.000000000000002 9.904 C 13.258000000000001 9.904 14.280000000000001 10.926 14.280000000000001 12.184 z" stroke-linecap="round" />
</g>
</g>
</g>
</svg>