<?xml version="1.0" encoding="UTF-8" standalone="no" ?>
<!DOCTYPE svg PUBLIC "-//W3C//DTD SVG 1.1//EN" "http://www.w3.org/Graphics/SVG/1.1/DTD/svg11.dtd">
<svg xmlns="http://www.w3.org/2000/svg" xmlns:xlink="http://www.w3.org/1999/xlink" version="1.1" width="1080" height="1080" viewBox="0 0 1080 1080" xml:space="preserve">
<desc>Created with Fabric.js 4.2.0</desc>
<defs>
</defs>
<rect x="0" y="0" width="100%" height="100%" fill="transparent"></rect>
<g transform="matrix(1 0 0 1 540 540)" id="cc90a070-4664-4ce3-84f3-4c99bd9ee134"  >
<rect style="stroke: none; stroke-width: 1; stroke-dasharray: none; stroke-linecap: butt; stroke-dashoffset: 0; stroke-linejoin: miter; stroke-miterlimit: 4; fill: rgb(255,255,255); fill-opacity: 0; fill-rule: nonzero; opacity: 1;" vector-effect="non-scaling-stroke"  x="-540" y="-540" rx="0" ry="0" width="1080" height="1080" />
</g>
<g transform="matrix(Infinity NaN NaN Infinity 0 0)" id="4aeeacd7-dafc-48b9-a059-9eadac87eb4b"  >
</g>
<g transform="matrix(53.27 0 0 53.27 540 540)" id="f7604d5f-0271-4dff-a8e8-b41dfd52556a"  >
<path style="stroke: rgb(0,0,0); stroke-width: 0; stroke-dasharray: none; stroke-linecap: butt; stroke-dashoffset: 0; stroke-linejoin: miter; stroke-miterlimit: 4; fill: rgb(0,0,0); fill-rule: nonzero; opacity: 1;" vector-effect="non-scaling-stroke"  transform=" translate(-12, -12)" d="M 19.75 2 L 4.25 2 C 3.013 2 2 3.013 2 4.25 L 2 19.75 C 2 20.987 3.013 22 4.25 22 L 19.75 22 C 20.987000000000002 22 22 20.987000000000002 22 19.75 L 22 4.25 C 22 3.013 20.987 2 19.75 2 z M 11 16.75 L 7 16.75 C 6.586 16.75 6.25 16.414 6.25 16 C 6.25 15.585999999999999 6.586 15.25 7 15.25 L 11 15.25 C 11.414 15.25 11.75 15.586 11.75 16 C 11.75 16.414 11.414 16.75 11 16.75 z M 17 12.75 L 7 12.75 C 6.586 12.75 6.25 12.414 6.25 12 C 6.25 11.586 6.586 11.25 7 11.25 L 17 11.25 C 17.414 11.25 17.75 11.586 17.75 12 C 17.75 12.414 17.414 12.75 17 12.75 z M 17 8.75 L 7 8.75 C 6.586 8.75 6.25 8.414 6.25 8 C 6.25 7.586 6.586 7.25 7 7.25 L 17 7.25 C 17.414 7.25 17.75 7.586 17.75 8 C 17.75 8.414 17.414 8.75 17 8.75 z" stroke-linecap="round" />
</g>
</svg>