<?xml version="1.0" encoding="UTF-8" standalone="no" ?>
<!DOCTYPE svg PUBLIC "-//W3C//DTD SVG 1.1//EN" "http://www.w3.org/Graphics/SVG/1.1/DTD/svg11.dtd">
<svg xmlns="http://www.w3.org/2000/svg" xmlns:xlink="http://www.w3.org/1999/xlink" version="1.1" width="1080" height="900" viewBox="0 0 1080 900" xml:space="preserve">
<desc>Created with Fabric.js 4.2.0</desc>
<defs>
</defs>
<g transform="matrix(1 0 0 1 540 450)" id="8e488f39-3ef9-4548-825e-6107cd215698"  >
<rect style="stroke: none; stroke-width: 1; stroke-dasharray: none; stroke-linecap: butt; stroke-dashoffset: 0; stroke-linejoin: miter; stroke-miterlimit: 4; fill: rgb(255,255,255); fill-opacity: 0; fill-rule: nonzero; opacity: 1;" vector-effect="non-scaling-stroke"  x="-540" y="-450" rx="0" ry="0" width="1080" height="900" />
</g>
<g transform="matrix(Infinity NaN NaN Infinity 0 0)" id="f4f1bba7-aff5-45ee-b989-3f926ddec180"  >
</g>
<g transform="matrix(46.68 0 0 46.68 540 450)" id="b4c1dfc8-270a-4379-afef-c430775f856a"  >
<path style="stroke: rgb(29,155,240); stroke-width: 0; stroke-dasharray: none; stroke-linecap: butt; stroke-dashoffset: 0; stroke-linejoin: miter; stroke-miterlimit: 4; fill: rgb(29,155,240); fill-rule: nonzero; opacity: 1;" vector-effect="non-scaling-stroke"  transform=" translate(-12.29, -11.98)" d="M 23.643 4.937 C 22.808 5.307 21.911 5.557 20.968 5.67 C 21.93 5.094 22.668 4.18 23.016 3.092 C 22.116 3.6260000000000003 21.119 4.014 20.058 4.2219999999999995 C 19.208 3.3179999999999996 17.998 2.752 16.658 2.752 C 14.086000000000002 2.752 12 4.837999999999999 12 7.412 C 12 7.776 12.042 8.129999999999999 12.12 8.472 C 8.247 8.277 4.815999999999999 6.422 2.517999999999999 3.603999999999999 C 2.117999999999999 4.293999999999999 1.887999999999999 5.093999999999999 1.887999999999999 5.946 C 1.887999999999999 7.561999999999999 2.710999999999999 8.989 3.959999999999999 9.824 C 3.195999999999999 9.799 2.477999999999999 9.59 1.8499999999999992 9.241 L 1.8499999999999992 9.301 C 1.8499999999999992 11.558 3.454999999999999 13.440999999999999 5.587 13.869 C 5.194999999999999 13.975 4.784 14.031 4.359999999999999 14.031 C 4.06 14.031 3.7669999999999995 14.003 3.4829999999999997 13.949 C 4.076 15.799 5.795999999999999 17.147 7.835 17.183 C 6.24 18.433 4.231 19.178 2.0490000000000004 19.178 C 1.6730000000000005 19.178 1.3020000000000005 19.156000000000002 0.9370000000000003 19.113 C 2.999 20.436 5.447 21.206 8.077 21.206 C 16.647 21.206 21.332 14.108 21.332 7.952 C 21.332 7.752 21.327 7.55 21.318 7.35 C 22.228 6.691999999999999 23.018 5.872999999999999 23.641000000000002 4.9399999999999995 z" stroke-linecap="round" />
</g>
</svg>