<?xml version="1.0" encoding="UTF-8" standalone="no" ?>
<!DOCTYPE svg PUBLIC "-//W3C//DTD SVG 1.1//EN" "http://www.w3.org/Graphics/SVG/1.1/DTD/svg11.dtd">
<svg xmlns="http://www.w3.org/2000/svg" xmlns:xlink="http://www.w3.org/1999/xlink" version="1.1" width="1080" height="1080" viewBox="0 0 1080 1080" xml:space="preserve">
<desc>Created with Fabric.js 4.2.0</desc>
<defs>
</defs>
<rect x="0" y="0" width="100%" height="100%" fill="transparent"></rect>
<g transform="matrix(1 0 0 1 540 540)" id="76e11a60-e319-49c4-bf41-8795ea8c1090"  >
<rect style="stroke: none; stroke-width: 1; stroke-dasharray: none; stroke-linecap: butt; stroke-dashoffset: 0; stroke-linejoin: miter; stroke-miterlimit: 4; fill: rgb(255,255,255); fill-opacity: 0; fill-rule: nonzero; opacity: 1;" vector-effect="non-scaling-stroke"  x="-540" y="-540" rx="0" ry="0" width="1080" height="1080" />
</g>
<g transform="matrix(Infinity NaN NaN Infinity 0 0)" id="1c0d5247-582a-4cb5-b05f-8a0f56f40f6b"  >
</g>
<g transform="matrix(52.58 0 0 52.58 540 540)" id="5718b7fd-7352-4386-9b18-6107088ee963"  >
<path style="stroke: rgb(0,0,0); stroke-width: 0; stroke-dasharray: none; stroke-linecap: butt; stroke-dashoffset: 0; stroke-linejoin: miter; stroke-miterlimit: 4; fill: rgb(0,0,0); fill-rule: nonzero; opacity: 1;" vector-effect="non-scaling-stroke"  transform=" translate(-12, -12.02)" d="M 19.25 3.018 L 4.75 3.018 C 3.233 3.018 2 4.252 2 5.77 L 2 18.265 C 2 19.783 3.233 21.018 4.75 21.018 L 19.25 21.018 C 20.767 21.018 22 19.783 22 18.265 L 22 5.77 C 22 4.252 20.767 3.018 19.25 3.018 z M 4.75 4.518 L 19.25 4.518 C 19.94 4.518 20.5 5.077999999999999 20.5 5.768 L 20.5 6.481999999999999 L 12.45 11.849 C 12.177 12.029 11.824 12.031 11.549999999999999 11.847 L 3.5 6.482 L 3.5 5.768000000000001 C 3.5 5.078000000000001 4.0600000000000005 4.518000000000001 4.75 4.518000000000001 z M 19.25 19.516 L 4.75 19.516 C 4.0600000000000005 19.516 3.5 18.956 3.5 18.266 L 3.5 8.24 L 10.74 13.07 C 11.123000000000001 13.326 11.562 13.454 12 13.454 C 12.44 13.454 12.877 13.326 13.26 13.071000000000002 L 20.5 8.241000000000001 L 20.5 18.263 C 20.5 18.953000000000003 19.94 19.513 19.25 19.513 z" stroke-linecap="round" />
</g>
</svg>