<?xml version="1.0" encoding="UTF-8" standalone="no" ?>
<!DOCTYPE svg PUBLIC "-//W3C//DTD SVG 1.1//EN" "http://www.w3.org/Graphics/SVG/1.1/DTD/svg11.dtd">
<svg xmlns="http://www.w3.org/2000/svg" xmlns:xlink="http://www.w3.org/1999/xlink" version="1.1" width="1080" height="1080" viewBox="0 0 1080 1080" xml:space="preserve">
<desc>Created with Fabric.js 4.2.0</desc>
<defs>
</defs>
<rect x="0" y="0" width="100%" height="100%" fill="transparent"></rect>
<g transform="matrix(1 0 0 1 540 540)" id="76e11a60-e319-49c4-bf41-8795ea8c1090"  >
<rect style="stroke: none; stroke-width: 1; stroke-dasharray: none; stroke-linecap: butt; stroke-dashoffset: 0; stroke-linejoin: miter; stroke-miterlimit: 4; fill: rgb(255,255,255); fill-opacity: 0; fill-rule: nonzero; opacity: 1;" vector-effect="non-scaling-stroke"  x="-540" y="-540" rx="0" ry="0" width="1080" height="1080" />
</g>
<g transform="matrix(Infinity NaN NaN Infinity 0 0)" id="1c0d5247-582a-4cb5-b05f-8a0f56f40f6b"  >
</g>
<g transform="matrix(52.04 0 0 52.04 540 540)" id="08bd3ffd-27ad-4f6f-a7e6-31f73c3bdb21"  >
<path style="stroke: rgb(0,0,0); stroke-width: 0; stroke-dasharray: none; stroke-linecap: butt; stroke-dashoffset: 0; stroke-linejoin: miter; stroke-miterlimit: 4; fill: rgb(0,0,0); fill-rule: nonzero; opacity: 1;" vector-effect="non-scaling-stroke"  transform=" translate(-12, -12.17)" d="M 21.697 16.468 C 21.677 16.452 19.557 14.828 19.593999999999998 10.437999999999999 C 19.613999999999997 7.904999999999999 18.781999999999996 5.655999999999999 17.246999999999996 4.103999999999999 C 15.871999999999996 2.7109999999999994 14.009999999999996 1.939999999999999 12.004999999999995 1.931999999999999 L 11.991999999999996 1.931999999999999 C 9.987999999999996 1.939999999999999 8.125999999999996 2.711999999999999 6.749999999999996 4.103999999999999 C 5.215999999999996 5.656999999999999 4.382999999999996 7.905999999999999 4.4039999999999955 10.437 C 4.440999999999995 14.768999999999998 2.3839999999999955 16.404 2.3019999999999956 16.467 C 2.0419999999999954 16.660999999999998 1.9359999999999955 16.997 2.0369999999999955 17.305 C 2.1379999999999955 17.613 2.4269999999999956 17.82 2.7499999999999956 17.82 L 7.243999999999995 17.82 C 7.343999999999995 20.364 9.431999999999995 22.407 11.999999999999996 22.407 C 14.567999999999998 22.407 16.654999999999998 20.364 16.755999999999997 17.82 L 21.249999999999996 17.82 C 21.573999999999998 17.82 21.859999999999996 17.612000000000002 21.961999999999996 17.305 C 22.063999999999997 16.997999999999998 21.956999999999997 16.661 21.696999999999996 16.468 z M 12 20.408 C 10.534 20.408 9.343 19.261000000000003 9.244 17.82 L 14.756 17.82 C 14.656 19.26 13.466000000000001 20.407 12 20.407 z" stroke-linecap="round" />
</g>
</svg>