<?xml version="1.0" encoding="UTF-8" standalone="no" ?>
<!DOCTYPE svg PUBLIC "-//W3C//DTD SVG 1.1//EN" "http://www.w3.org/Graphics/SVG/1.1/DTD/svg11.dtd">
<svg xmlns="http://www.w3.org/2000/svg" xmlns:xlink="http://www.w3.org/1999/xlink" version="1.1" width="1080" height="1080" viewBox="0 0 1080 1080" xml:space="preserve">
<desc>Created with Fabric.js 4.2.0</desc>
<defs>
</defs>
<rect x="0" y="0" width="100%" height="100%" fill="transparent"></rect>
<g transform="matrix(1 0 0 1 540 540)" id="76e11a60-e319-49c4-bf41-8795ea8c1090"  >
<rect style="stroke: none; stroke-width: 1; stroke-dasharray: none; stroke-linecap: butt; stroke-dashoffset: 0; stroke-linejoin: miter; stroke-miterlimit: 4; fill: rgb(255,255,255); fill-opacity: 0; fill-rule: nonzero; opacity: 1;" vector-effect="non-scaling-stroke"  x="-540" y="-540" rx="0" ry="0" width="1080" height="1080" />
</g>
<g transform="matrix(Infinity NaN NaN Infinity 0 0)" id="1c0d5247-582a-4cb5-b05f-8a0f56f40f6b"  >
</g>
<g transform="matrix(52.72 0 0 52.72 540 540)" id="1100768b-ffb1-4dcf-b6b6-017cf2a29476"  >
<path style="stroke: rgb(0,0,0); stroke-width: 0; stroke-dasharray: none; stroke-linecap: butt; stroke-dashoffset: 0; stroke-linejoin: miter; stroke-miterlimit: 4; fill: rgb(0,0,0); fill-rule: nonzero; opacity: 1;" vector-effect="non-scaling-stroke"  transform=" translate(-12, -11.96)" d="M 21.697 16.468 C 21.677 16.452 19.557 14.828 19.593999999999998 10.437999999999999 C 19.613999999999997 7.905999999999999 18.781999999999996 5.655999999999999 17.246999999999996 4.102999999999999 C 15.872 2.71 14.01 1.94 12.005 1.93 L 11.992 1.93 C 9.988000000000001 1.94 8.126000000000001 2.71 6.750000000000001 4.104 C 5.216000000000001 5.657 4.3820000000000014 7.906000000000001 4.404000000000001 10.437999999999999 C 4.441000000000001 14.767999999999999 2.384000000000001 16.404999999999998 2.302000000000001 16.468 C 2.0420000000000007 16.661 1.9360000000000008 16.998 2.037000000000001 17.306 C 2.1390000000000007 17.614 2.427000000000001 17.821 2.7490000000000006 17.821 L 7.6690000000000005 17.821 C 7.771000000000001 20.131 9.666 21.981 11.999 21.981 C 14.332 21.981 16.225 20.131 16.326 17.821 L 21.248 17.821 C 21.57 17.821 21.858 17.615000000000002 21.958000000000002 17.307000000000002 C 22.061000000000003 17.000000000000004 21.955000000000002 16.662000000000003 21.695 16.469 z M 12 20.478 C 10.495000000000001 20.478 9.27 19.301000000000002 9.172 17.82 L 14.828 17.82 C 14.728 19.3 13.504999999999999 20.48 12 20.48 z M 4.38 16.32 C 5.12 15.188 5.928 13.292 5.904 10.424 C 5.886 8.264 6.548 6.441999999999999 7.817 5.156999999999999 C 8.91 4.05 10.397 3.437 12 3.43 C 13.603 3.438 15.087 4.05 16.18 5.158 C 17.45 6.4430000000000005 18.113 8.264 18.095 10.425 C 18.070999999999998 13.293000000000001 18.88 15.190000000000001 19.619999999999997 16.321 L 4.38 16.321 z" stroke-linecap="round" />
</g>
</svg>