<?xml version="1.0" encoding="UTF-8" standalone="no" ?>
<!DOCTYPE svg PUBLIC "-//W3C//DTD SVG 1.1//EN" "http://www.w3.org/Graphics/SVG/1.1/DTD/svg11.dtd">
<svg xmlns="http://www.w3.org/2000/svg" xmlns:xlink="http://www.w3.org/1999/xlink" version="1.1" width="1080" height="1080" viewBox="0 0 1080 1080" xml:space="preserve">
<desc>Created with Fabric.js 4.2.0</desc>
<defs>
</defs>
<rect x="0" y="0" width="100%" height="100%" fill="transparent"></rect>
<g transform="matrix(1 0 0 1 540 540)" id="76e11a60-e319-49c4-bf41-8795ea8c1090"  >
<rect style="stroke: none; stroke-width: 1; stroke-dasharray: none; stroke-linecap: butt; stroke-dashoffset: 0; stroke-linejoin: miter; stroke-miterlimit: 4; fill: rgb(255,255,255); fill-opacity: 0; fill-rule: nonzero; opacity: 1;" vector-effect="non-scaling-stroke"  x="-540" y="-540" rx="0" ry="0" width="1080" height="1080" />
</g>
<g transform="matrix(Infinity NaN NaN Infinity 0 0)" id="1c0d5247-582a-4cb5-b05f-8a0f56f40f6b"  >
</g>
<g transform="matrix(51.68 0 0 51.68 540 540)" id="e01e04da-246d-4b15-8564-e765b9a8fffa"  >
<path style="stroke: rgb(0,0,0); stroke-width: 0; stroke-dasharray: none; stroke-linecap: butt; stroke-dashoffset: 0; stroke-linejoin: miter; stroke-miterlimit: 4; fill: rgb(0,0,0); fill-rule: nonzero; opacity: 1;" vector-effect="non-scaling-stroke"  transform=" translate(-12, -11.83)" d="M 12 11.816 C 13.355 11.816 14.872 11.666 15.84 10.56 C 16.654 9.63 16.918 8.192 16.646 6.168 C 16.266000000000002 3.343 14.529 1.6560000000000006 12 1.6560000000000006 C 9.471 1.6560000000000006 7.734 3.343 7.354 6.17 C 7.082 8.192 7.346 9.629999999999999 8.16 10.559999999999999 C 9.128 11.666999999999998 10.645 11.815999999999999 12 11.815999999999999 z M 8.84 6.368 C 9.002 5.168 9.627 3.156 12 3.156 C 14.373 3.156 14.998000000000001 5.1690000000000005 15.16 6.368 C 15.367 7.918 15.217 8.995000000000001 14.71 9.573 C 14.255 10.093 13.444 10.316 12 10.316 C 10.556 10.316 9.745000000000001 10.093 9.29 9.573 C 8.783 8.995000000000001 8.633 7.917000000000001 8.84 6.368 z M 20.28 19.236 C 19.403000000000002 15.71 15.998000000000001 13.246 12.000000000000002 13.246 C 8.002000000000002 13.246 4.597000000000002 15.71 3.7200000000000024 19.236 C 3.5480000000000023 19.928 3.6920000000000024 20.636 4.115000000000002 21.176000000000002 C 4.523000000000002 21.696 5.155000000000002 21.996000000000002 5.8480000000000025 21.996000000000002 L 18.152 21.996000000000002 C 18.845000000000002 21.996000000000002 19.477 21.696 19.885 21.176000000000002 C 20.309 20.636000000000003 20.452 19.929000000000002 20.279 19.236 z M 18.704 20.252000000000002 C 18.578 20.412000000000003 18.388 20.498 18.152 20.498 L 5.848 20.498 C 5.6129999999999995 20.498 5.422 20.413 5.295999999999999 20.252000000000002 C 5.158999999999999 20.078000000000003 5.116 19.840000000000003 5.175999999999999 19.598000000000003 C 5.885999999999999 16.743000000000002 8.693 14.748000000000003 12 14.748000000000003 C 15.307 14.748000000000003 18.114 16.742000000000004 18.823999999999998 19.598000000000003 C 18.883999999999997 19.840000000000003 18.840999999999998 20.078000000000003 18.703999999999997 20.252000000000002 z" stroke-linecap="round" />
</g>
</svg>