<?xml version="1.0" encoding="UTF-8" standalone="no" ?>
<!DOCTYPE svg PUBLIC "-//W3C//DTD SVG 1.1//EN" "http://www.w3.org/Graphics/SVG/1.1/DTD/svg11.dtd">
<svg xmlns="http://www.w3.org/2000/svg" xmlns:xlink="http://www.w3.org/1999/xlink" version="1.1" width="1080" height="1080" viewBox="0 0 1080 1080" xml:space="preserve">
<desc>Created with Fabric.js 4.2.0</desc>
<defs>
</defs>
<rect x="0" y="0" width="100%" height="100%" fill="transparent"></rect>
<g transform="matrix(1 0 0 1 540 540)" id="741caae8-f581-4ce1-994b-5057dff9dc7c"  >
<rect style="stroke: none; stroke-width: 1; stroke-dasharray: none; stroke-linecap: butt; stroke-dashoffset: 0; stroke-linejoin: miter; stroke-miterlimit: 4; fill: rgb(255,255,255); fill-opacity: 0; fill-rule: nonzero; opacity: 1;" vector-effect="non-scaling-stroke"  x="-540" y="-540" rx="0" ry="0" width="1080" height="1080" />
</g>
<g transform="matrix(Infinity NaN NaN Infinity 0 0)" id="1ee9c780-4e74-4ab4-abba-be78139bdb55"  >
</g>
<g transform="matrix(48.55 0 0 48.55 540 540)"  >
<g style="" vector-effect="non-scaling-stroke"   >
		<g transform="matrix(1 0 0 1 0 0)"  >
<path style="stroke: none; stroke-width: 1; stroke-dasharray: none; stroke-linecap: butt; stroke-dashoffset: 0; stroke-linejoin: miter; stroke-miterlimit: 4; fill: rgb(29,155,240); fill-rule: nonzero; opacity: 1;" vector-effect="non-scaling-stroke"  transform=" translate(-12, -12)" d="M 12 22.75 C 6.072 22.75 1.25 17.928 1.25 12 C 1.25 6.071999999999999 6.072 1.25 12 1.25 C 17.928 1.25 22.75 6.072 22.75 12 C 22.75 17.928 17.928 22.75 12 22.75 z M 12 2.75 C 6.9 2.75 2.75 6.9 2.75 12 C 2.75 17.1 6.9 21.25 12 21.25 C 17.1 21.25 21.25 17.1 21.25 12 C 21.25 6.899999999999999 17.1 2.75 12 2.75 z" stroke-linecap="round" />
</g>
		<g transform="matrix(1 0 0 1 0 3.27)"  >
<path style="stroke: none; stroke-width: 1; stroke-dasharray: none; stroke-linecap: butt; stroke-dashoffset: 0; stroke-linejoin: miter; stroke-miterlimit: 4; fill: rgb(29,155,240); fill-rule: nonzero; opacity: 1;" vector-effect="non-scaling-stroke"  transform=" translate(-12, -15.27)" d="M 12 17.115 C 10.108 17.115 8.367 16.165 7.344 14.570999999999998 C 7.12 14.222999999999997 7.221 13.760999999999997 7.57 13.535999999999998 C 7.918 13.309999999999997 8.382 13.411999999999997 8.606 13.761999999999999 C 9.353 14.924 10.622 15.616999999999999 12.001 15.616999999999999 C 13.379999999999999 15.616999999999999 14.649 14.924 15.396999999999998 13.762999999999998 C 15.620999999999999 13.412999999999998 16.084999999999997 13.312999999999999 16.433 13.537999999999998 C 16.783 13.761999999999999 16.883 14.225999999999999 16.659 14.573999999999998 C 15.633999999999999 16.168 13.892999999999999 17.119 12.000999999999998 17.119 z" stroke-linecap="round" />
</g>
		<g transform="matrix(1 0 0 1 2.74 -2.54)"  >
<circle style="stroke: none; stroke-width: 1; stroke-dasharray: none; stroke-linecap: butt; stroke-dashoffset: 0; stroke-linejoin: miter; stroke-miterlimit: 4; fill: rgb(29,155,240); fill-rule: nonzero; opacity: 1;" vector-effect="non-scaling-stroke"  cx="0" cy="0" r="1.478" />
</g>
		<g transform="matrix(1 0 0 1 -2.74 -2.54)"  >
<circle style="stroke: none; stroke-width: 1; stroke-dasharray: none; stroke-linecap: butt; stroke-dashoffset: 0; stroke-linejoin: miter; stroke-miterlimit: 4; fill: rgb(29,155,240); fill-rule: nonzero; opacity: 1;" vector-effect="non-scaling-stroke"  cx="0" cy="0" r="1.478" />
</g>
</g>
</g>
</svg>