<?xml version="1.0" encoding="UTF-8" standalone="no" ?>
<!DOCTYPE svg PUBLIC "-//W3C//DTD SVG 1.1//EN" "http://www.w3.org/Graphics/SVG/1.1/DTD/svg11.dtd">
<svg xmlns="http://www.w3.org/2000/svg" xmlns:xlink="http://www.w3.org/1999/xlink" version="1.1" width="1080" height="1080" viewBox="0 0 1080 1080" xml:space="preserve">
<desc>Created with Fabric.js 4.2.0</desc>
<defs>
</defs>
<g transform="matrix(1 0 0 1 540 540)" id="0841cab4-2704-48f2-87c9-85b018c9aec6"  >
<rect style="stroke: none; stroke-width: 1; stroke-dasharray: none; stroke-linecap: butt; stroke-dashoffset: 0; stroke-linejoin: miter; stroke-miterlimit: 4; fill: rgb(255,255,255); fill-rule: nonzero; opacity: 1;" vector-effect="non-scaling-stroke"  x="-540" y="-540" rx="0" ry="0" width="1080" height="1080" />
</g>
<g transform="matrix(1 0 0 1 540 540)" id="8ac24521-584b-433a-9213-87ee2b0dd5ae"  >
</g>
<g transform="matrix(18.02 0 0 18.02 540 540)" id="1ba4ae7f-4995-4c69-9257-ab42e3b1053e"  >
<path style="stroke: rgb(0,0,0); stroke-width: 0; stroke-dasharray: none; stroke-linecap: butt; stroke-dashoffset: 0; stroke-linejoin: miter; stroke-miterlimit: 4; fill: rgb(0,0,0); fill-rule: nonzero; opacity: 0.68;" vector-effect="non-scaling-stroke"  transform=" translate(-12, -12.17)" d="M 23.77 15.67 C 23.477999999999998 15.377 23.003 15.377 22.71 15.67 L 20.490000000000002 17.89 L 20.490000000000002 7.65 C 20.490000000000002 5.582000000000001 18.807000000000002 3.9000000000000004 16.740000000000002 3.9000000000000004 L 10.890000000000002 3.9000000000000004 C 10.476000000000003 3.9000000000000004 10.140000000000002 4.236000000000001 10.140000000000002 4.65 C 10.140000000000002 5.064 10.476000000000003 5.4 10.890000000000002 5.4 L 16.740000000000002 5.4 C 17.98 5.4 18.990000000000002 6.41 18.990000000000002 7.65 L 18.990000000000002 17.89 L 16.770000000000003 15.67 C 16.477000000000004 15.377 16.002000000000002 15.377 15.710000000000003 15.67 C 15.418000000000003 15.963 15.416000000000002 16.438 15.710000000000003 16.73 L 19.21 20.23 C 19.355 20.377 19.547 20.45 19.740000000000002 20.45 C 19.933000000000003 20.45 20.123 20.378 20.270000000000003 20.23 L 23.770000000000003 16.73 C 24.064000000000004 16.438 24.064000000000004 15.963000000000001 23.770000000000003 15.67 z M 13.11 18.95 L 7.26 18.95 C 6.02 18.95 5.01 17.939999999999998 5.01 16.7 L 5.01 6.46 L 7.23 8.68 C 7.378 8.827 7.57 8.9 7.7620000000000005 8.9 C 7.954000000000001 8.9 8.146 8.827 8.292 8.68 C 8.584999999999999 8.387 8.584999999999999 7.912 8.292 7.619999999999999 L 4.792 4.119999999999999 C 4.499 3.825999999999999 4.024 3.825999999999999 3.7319999999999998 4.119999999999999 L 0.23199999999999976 7.619999999999999 C -0.06200000000000022 7.911999999999999 -0.06200000000000022 8.386999999999999 0.23199999999999976 8.68 C 0.5259999999999998 8.973 0.9989999999999998 8.972999999999999 1.2919999999999998 8.68 L 3.512 6.459999999999999 L 3.512 16.7 C 3.512 18.768 5.195 20.45 7.2620000000000005 20.45 L 13.112 20.45 C 13.526 20.45 13.862 20.114 13.862 19.7 C 13.862 19.285999999999998 13.525 18.95 13.112 18.95 z" stroke-linecap="round" />
</g>
</svg>