<?xml version="1.0" encoding="UTF-8" standalone="no" ?>
<!DOCTYPE svg PUBLIC "-//W3C//DTD SVG 1.1//EN" "http://www.w3.org/Graphics/SVG/1.1/DTD/svg11.dtd">
<svg xmlns="http://www.w3.org/2000/svg" xmlns:xlink="http://www.w3.org/1999/xlink" version="1.1" width="1080" height="1080" viewBox="0 0 1080 1080" xml:space="preserve">
<desc>Created with Fabric.js 4.2.0</desc>
<defs>
</defs>
<g transform="matrix(1 0 0 1 540 540)" id="21cd9a93-64ad-40bb-a6d4-68dbb94e44be"  >
<rect style="stroke: none; stroke-width: 1; stroke-dasharray: none; stroke-linecap: butt; stroke-dashoffset: 0; stroke-linejoin: miter; stroke-miterlimit: 4; fill: rgb(255,255,255); fill-rule: nonzero; opacity: 1;" vector-effect="non-scaling-stroke"  x="-540" y="-540" rx="0" ry="0" width="1080" height="1080" />
</g>
<g transform="matrix(1 0 0 1 540 540)" id="cc9dbe90-2320-4961-af25-c0e8dc0eda65"  >
</g>
<g transform="matrix(21.49 0 0 21.49 540 540)" id="272cd95f-0048-4f2d-bb57-8953ef4a1522"  >
<path style="stroke: rgb(0,0,0); stroke-width: 0; stroke-dasharray: none; stroke-linecap: butt; stroke-dashoffset: 0; stroke-linejoin: miter; stroke-miterlimit: 4; fill: rgb(0,0,0); fill-rule: nonzero; opacity: 0.7;" vector-effect="non-scaling-stroke"  transform=" translate(-12, -12.18)" d="M 12 21.638 L 11.986 21.638 C 9.403 21.59 1.95 14.856 1.95 8.478 C 1.95 5.414 4.475 2.724 7.353 2.724 C 9.643 2.724 11.183 4.304 11.998999999999999 5.454000000000001 C 12.812999999999999 4.306000000000001 14.352999999999998 2.7240000000000006 16.644 2.7240000000000006 C 19.523999999999997 2.7240000000000006 22.048 5.414000000000001 22.048 8.479000000000001 C 22.048 14.855 14.593999999999998 21.589 12.010999999999997 21.636000000000003 L 12 21.636000000000003 z M 7.354 4.225 C 5.274 4.225 3.451 6.212999999999999 3.451 8.48 C 3.451 14.22 10.485 20.076 12.001000000000001 20.137999999999998 C 13.519000000000002 20.075999999999997 20.551000000000002 14.220999999999998 20.551000000000002 8.479999999999999 C 20.551000000000002 6.212999999999999 18.728 4.224999999999999 16.648000000000003 4.224999999999999 C 14.120000000000003 4.224999999999999 12.708000000000004 7.160999999999999 12.696000000000003 7.189999999999999 C 12.466000000000003 7.751999999999999 11.540000000000003 7.751999999999999 11.309000000000003 7.189999999999999 C 11.295000000000003 7.159999999999998 9.884000000000002 4.224999999999999 7.355000000000002 4.224999999999999 z" stroke-linecap="round" />
</g>
</svg>